<svg xmlns="http://www.w3.org/2000/svg" xmlns:xlink="http://www.w3.org/1999/xlink" width="500" zoomAndPan="magnify" viewBox="0 0 375 374.999991" height="500" preserveAspectRatio="xMidYMid meet" version="1.0"><defs><clipPath id="f2f7dc9bb9"><path d="M 59.460938 77 L 315.210938 77 L 315.210938 368.429688 L 59.460938 368.429688 Z M 59.460938 77 " clip-rule="nonzero"/></clipPath><clipPath id="6c10698a26"><path d="M 83 6.929688 L 131 6.929688 L 131 56 L 83 56 Z M 83 6.929688 " clip-rule="nonzero"/></clipPath><clipPath id="8f0c45b0d7"><path d="M 137 6.929688 L 183 6.929688 L 183 56 L 137 56 Z M 137 6.929688 " clip-rule="nonzero"/></clipPath><clipPath id="f757a26a8a"><path d="M 190 6.929688 L 245 6.929688 L 245 56 L 190 56 Z M 190 6.929688 " clip-rule="nonzero"/></clipPath><clipPath id="7f4f345dbb"><path d="M 252 6.929688 L 293 6.929688 L 293 56 L 252 56 Z M 252 6.929688 " clip-rule="nonzero"/></clipPath></defs><g clip-path="url(#f2f7dc9bb9)"><path fill="#e44d26" d="M 315.464844 77.898438 L 292.160156 339.007812 L 187.386719 368.050781 L 82.910156 339.050781 L 59.625 77.898438 L 315.460938 77.894531 L 315.472656 77.894531 Z M 315.464844 77.898438 " fill-opacity="1" fill-rule="nonzero"/></g><path fill="#f16529" d="M 187.546875 345.851562 L 272.210938 322.386719 L 292.128906 99.253906 L 187.546875 99.253906 Z M 187.546875 345.851562 " fill-opacity="1" fill-rule="nonzero"/><path fill="#ebebeb" d="M 142.238281 163.308594 L 187.546875 163.308594 L 187.546875 131.277344 L 107.234375 131.277344 L 108 139.871094 L 115.875 228.136719 L 187.546875 228.136719 L 187.546875 196.113281 L 145.167969 196.113281 Z M 142.238281 163.308594 " fill-opacity="1" fill-rule="nonzero"/><path fill="#ebebeb" d="M 149.457031 244.152344 L 117.304688 244.152344 L 121.792969 294.445312 L 187.398438 312.65625 L 187.546875 312.617188 L 187.546875 279.292969 L 187.410156 279.332031 L 151.738281 269.695312 Z M 149.457031 244.152344 " fill-opacity="1" fill-rule="nonzero"/><g clip-path="url(#6c10698a26)"><path fill="#ffffff" d="M 83.429688 6.929688 L 99.707031 6.929688 L 99.707031 23.011719 L 114.597656 23.011719 L 114.597656 6.929688 L 130.875 6.929688 L 130.875 55.628906 L 114.597656 55.628906 L 114.597656 39.320312 L 99.707031 39.320312 L 99.707031 55.628906 L 83.429688 55.628906 Z M 83.429688 6.929688 " fill-opacity="1" fill-rule="nonzero"/></g><g clip-path="url(#8f0c45b0d7)"><path fill="#ffffff" d="M 152.277344 23.078125 L 137.949219 23.078125 L 137.949219 6.929688 L 182.894531 6.929688 L 182.894531 23.078125 L 168.554688 23.078125 L 168.554688 55.628906 L 152.28125 55.628906 L 152.28125 23.078125 Z M 152.277344 23.078125 " fill-opacity="1" fill-rule="nonzero"/></g><g clip-path="url(#f757a26a8a)"><path fill="#ffffff" d="M 190.027344 6.929688 L 206.996094 6.929688 L 217.433594 24.042969 L 227.863281 6.929688 L 244.84375 6.929688 L 244.84375 55.628906 L 228.636719 55.628906 L 228.636719 31.492188 L 217.433594 48.804688 L 217.152344 48.804688 L 205.953125 31.492188 L 205.953125 55.628906 L 190.027344 55.628906 Z M 190.027344 6.929688 " fill-opacity="1" fill-rule="nonzero"/></g><g clip-path="url(#7f4f345dbb)"><path fill="#ffffff" d="M 252.945312 6.929688 L 269.222656 6.929688 L 269.222656 39.53125 L 292.117188 39.53125 L 292.117188 55.628906 L 252.945312 55.628906 Z M 252.945312 6.929688 " fill-opacity="1" fill-rule="nonzero"/></g><path fill="#ffffff" d="M 187.4375 228.136719 L 226.882812 228.136719 L 223.160156 269.675781 L 187.4375 279.320312 L 187.4375 312.636719 L 253.097656 294.445312 L 253.578125 289.03125 L 261.109375 204.707031 L 261.890625 196.113281 L 187.4375 196.113281 Z M 187.4375 228.136719 " fill-opacity="1" fill-rule="nonzero"/><path fill="#ffffff" d="M 187.4375 163.230469 L 187.4375 163.308594 L 264.800781 163.308594 L 265.441406 156.109375 L 266.90625 139.871094 L 267.667969 131.277344 L 187.4375 131.277344 Z M 187.4375 163.230469 " fill-opacity="1" fill-rule="nonzero"/></svg>