<svg xmlns="http://www.w3.org/2000/svg" xmlns:xlink="http://www.w3.org/1999/xlink" width="500" zoomAndPan="magnify" viewBox="0 0 375 374.999991" height="500" preserveAspectRatio="xMidYMid meet" version="1.0"><defs><clipPath id="f9f469ce81"><path d="M 23.765625 20.9375 L 351.511719 20.9375 L 351.511719 375 L 23.765625 375 Z M 23.765625 20.9375 " clip-rule="nonzero"/></clipPath></defs><g clip-path="url(#f9f469ce81)"><path fill="#2196f3" d="M 349.445312 23.375 C 348.738281 22.597656 347.90625 21.996094 346.945312 21.570312 C 345.980469 21.148438 344.976562 20.933594 343.925781 20.9375 L 31.351562 20.9375 C 30.832031 20.933594 30.316406 20.984375 29.804688 21.089844 C 29.292969 21.195312 28.800781 21.355469 28.320312 21.566406 C 27.84375 21.773438 27.394531 22.03125 26.96875 22.335938 C 26.546875 22.640625 26.160156 22.984375 25.808594 23.371094 C 25.457031 23.757812 25.152344 24.175781 24.886719 24.625 C 24.625 25.074219 24.410156 25.546875 24.25 26.042969 C 24.085938 26.539062 23.976562 27.042969 23.917969 27.5625 C 23.859375 28.082031 23.859375 28.597656 23.910156 29.117188 L 53.679688 326.617188 C 53.75 327.332031 53.921875 328.019531 54.191406 328.6875 C 54.460938 329.351562 54.820312 329.964844 55.265625 330.523438 C 55.714844 331.085938 56.234375 331.570312 56.820312 331.980469 C 57.410156 332.394531 58.042969 332.710938 58.726562 332.941406 L 192.683594 377.566406 C 193.464844 377.816406 194.261719 377.941406 195.082031 377.9375 C 195.984375 377.9375 196.855469 377.777344 197.699219 377.460938 L 316.773438 332.835938 C 317.429688 332.59375 318.035156 332.269531 318.59375 331.855469 C 319.15625 331.445312 319.648438 330.964844 320.078125 330.417969 C 320.503906 329.867188 320.84375 329.269531 321.105469 328.625 C 321.363281 327.976562 321.527344 327.308594 321.597656 326.617188 L 351.367188 29.117188 C 351.46875 28.066406 351.351562 27.042969 351.015625 26.042969 C 350.683594 25.042969 350.160156 24.152344 349.445312 23.375 Z M 349.445312 23.375 " fill-opacity="1" fill-rule="nonzero"/></g><path fill="#fafafa" d="M 195.082031 303.5625 C 194.277344 303.558594 193.492188 303.4375 192.730469 303.191406 L 125.75 280.878906 C 125.128906 280.671875 124.546875 280.386719 124 280.027344 C 123.453125 279.664062 122.964844 279.242188 122.53125 278.75 C 122.09375 278.261719 121.734375 277.722656 121.441406 277.136719 C 121.148438 276.554688 120.9375 275.941406 120.808594 275.300781 L 113.367188 238.113281 C 113.269531 237.632812 113.21875 237.148438 113.214844 236.660156 C 113.210938 236.171875 113.257812 235.6875 113.351562 235.207031 C 113.441406 234.730469 113.582031 234.261719 113.765625 233.808594 C 113.953125 233.359375 114.179688 232.929688 114.449219 232.519531 C 114.71875 232.113281 115.023438 231.734375 115.367188 231.386719 C 115.710938 231.039062 116.085938 230.730469 116.492188 230.457031 C 116.898438 230.183594 117.324219 229.953125 117.777344 229.761719 C 118.226562 229.574219 118.691406 229.429688 119.171875 229.332031 C 119.648438 229.234375 120.132812 229.183594 120.621094 229.183594 C 121.109375 229.179688 121.59375 229.226562 122.074219 229.320312 C 122.554688 229.410156 123.019531 229.550781 123.472656 229.734375 C 123.925781 229.917969 124.355469 230.148438 124.765625 230.417969 C 125.171875 230.6875 125.550781 230.992188 125.898438 231.335938 C 126.246094 231.679688 126.554688 232.054688 126.828125 232.460938 C 127.101562 232.863281 127.332031 233.292969 127.523438 233.742188 C 127.710938 234.191406 127.855469 234.65625 127.953125 235.136719 L 134.546875 268.085938 L 194.933594 288.242188 L 248.007812 268.351562 L 275.546875 110.1875 L 105.773438 110.1875 C 105.285156 110.1875 104.800781 110.140625 104.324219 110.042969 C 103.84375 109.949219 103.378906 109.808594 102.925781 109.621094 C 102.476562 109.433594 102.046875 109.203125 101.640625 108.933594 C 101.234375 108.660156 100.859375 108.351562 100.511719 108.007812 C 100.167969 107.664062 99.859375 107.289062 99.585938 106.882812 C 99.316406 106.476562 99.085938 106.046875 98.898438 105.59375 C 98.710938 105.144531 98.570312 104.679688 98.476562 104.199219 C 98.378906 103.722656 98.332031 103.238281 98.332031 102.75 C 98.332031 102.261719 98.378906 101.777344 98.476562 101.296875 C 98.570312 100.820312 98.710938 100.355469 98.898438 99.902344 C 99.085938 99.453125 99.316406 99.023438 99.585938 98.617188 C 99.859375 98.210938 100.167969 97.835938 100.511719 97.488281 C 100.859375 97.144531 101.234375 96.835938 101.640625 96.566406 C 102.046875 96.292969 102.476562 96.066406 102.925781 95.878906 C 103.378906 95.691406 103.84375 95.550781 104.324219 95.453125 C 104.800781 95.359375 105.285156 95.3125 105.773438 95.3125 L 284.386719 95.3125 C 284.929688 95.3125 285.46875 95.371094 285.996094 95.484375 C 286.527344 95.601562 287.039062 95.777344 287.53125 96.003906 C 288.023438 96.234375 288.484375 96.511719 288.917969 96.84375 C 289.347656 97.171875 289.738281 97.546875 290.089844 97.960938 C 290.4375 98.375 290.738281 98.824219 290.988281 99.304688 C 291.242188 99.785156 291.4375 100.289062 291.578125 100.8125 C 291.722656 101.335938 291.804688 101.871094 291.828125 102.414062 C 291.851562 102.957031 291.816406 103.492188 291.726562 104.027344 L 261.957031 275.089844 C 261.84375 275.730469 261.652344 276.339844 261.382812 276.929688 C 261.109375 277.515625 260.765625 278.058594 260.351562 278.558594 C 259.9375 279.058594 259.46875 279.492188 258.941406 279.867188 C 258.410156 280.246094 257.84375 280.546875 257.238281 280.773438 L 197.699219 303.085938 C 196.855469 303.402344 195.984375 303.5625 195.082031 303.5625 Z M 195.082031 303.5625 " fill-opacity="1" fill-rule="nonzero"/><path fill="#fafafa" d="M 269.503906 184.5625 L 113.21875 184.5625 C 112.726562 184.5625 112.246094 184.515625 111.765625 184.417969 C 111.285156 184.324219 110.820312 184.183594 110.367188 183.996094 C 109.917969 183.808594 109.488281 183.578125 109.082031 183.308594 C 108.675781 183.035156 108.300781 182.726562 107.953125 182.382812 C 107.609375 182.039062 107.300781 181.664062 107.027344 181.257812 C 106.757812 180.851562 106.527344 180.421875 106.339844 179.96875 C 106.152344 179.519531 106.011719 179.054688 105.917969 178.574219 C 105.824219 178.097656 105.773438 177.613281 105.773438 177.125 C 105.773438 176.636719 105.824219 176.152344 105.917969 175.671875 C 106.011719 175.195312 106.152344 174.730469 106.339844 174.277344 C 106.527344 173.828125 106.757812 173.398438 107.027344 172.992188 C 107.300781 172.585938 107.609375 172.210938 107.953125 171.863281 C 108.300781 171.519531 108.675781 171.210938 109.082031 170.941406 C 109.488281 170.667969 109.917969 170.441406 110.367188 170.253906 C 110.820312 170.066406 111.285156 169.925781 111.765625 169.828125 C 112.246094 169.734375 112.726562 169.6875 113.21875 169.6875 L 269.503906 169.6875 C 269.992188 169.6875 270.476562 169.734375 270.953125 169.828125 C 271.433594 169.925781 271.898438 170.066406 272.351562 170.253906 C 272.800781 170.441406 273.230469 170.667969 273.636719 170.941406 C 274.042969 171.210938 274.417969 171.519531 274.765625 171.863281 C 275.109375 172.210938 275.417969 172.585938 275.691406 172.992188 C 275.960938 173.398438 276.191406 173.828125 276.378906 174.277344 C 276.566406 174.730469 276.707031 175.195312 276.800781 175.671875 C 276.898438 176.152344 276.945312 176.636719 276.945312 177.125 C 276.945312 177.613281 276.898438 178.097656 276.800781 178.574219 C 276.707031 179.054688 276.566406 179.519531 276.378906 179.96875 C 276.191406 180.421875 275.960938 180.851562 275.691406 181.257812 C 275.417969 181.664062 275.109375 182.039062 274.765625 182.382812 C 274.417969 182.726562 274.042969 183.035156 273.636719 183.308594 C 273.230469 183.578125 272.800781 183.808594 272.351562 183.996094 C 271.898438 184.183594 271.433594 184.324219 270.953125 184.417969 C 270.476562 184.515625 269.992188 184.5625 269.503906 184.5625 Z M 269.503906 184.5625 " fill-opacity="1" fill-rule="nonzero"/></svg>