<svg xmlns="http://www.w3.org/2000/svg" xmlns:xlink="http://www.w3.org/1999/xlink" width="500" zoomAndPan="magnify" viewBox="0 0 375 374.999991" height="500" preserveAspectRatio="xMidYMid meet" version="1.0"><defs><clipPath id="50803700e1"><path d="M 3 28.109375 L 371.890625 28.109375 L 371.890625 375 L 3 375 Z M 3 28.109375 " clip-rule="nonzero"/></clipPath><clipPath id="140faf37eb"><path d="M 3 28.109375 L 189 28.109375 L 189 375 L 3 375 Z M 3 28.109375 " clip-rule="nonzero"/></clipPath></defs><g clip-path="url(#50803700e1)"><path fill="#ffc44d" d="M 16.621094 27.25 C 12.925781 27.25 9.414062 28.835938 6.96875 31.601562 C 4.527344 34.371094 3.386719 38.054688 3.847656 41.71875 L 38.171875 316.324219 C 38.707031 320.59375 41.339844 324.316406 45.1875 326.238281 L 182.492188 394.890625 C 186.113281 396.703125 190.378906 396.703125 194.003906 394.890625 L 331.304688 326.238281 C 335.15625 324.316406 337.789062 320.59375 338.320312 316.324219 L 372.648438 41.71875 C 373.105469 38.054688 371.96875 34.371094 369.527344 31.601562 C 367.082031 28.835938 363.566406 27.25 359.875 27.25 Z M 16.621094 27.25 " fill-opacity="1" fill-rule="nonzero"/></g><g clip-path="url(#140faf37eb)"><path fill="#e5b045" d="M 188.246094 27.25 L 188.246094 396.25 C 186.273438 396.25 184.304688 395.796875 182.492188 394.890625 L 45.1875 326.238281 C 41.339844 324.316406 38.707031 320.59375 38.171875 316.324219 L 3.847656 41.71875 C 3.386719 38.054688 4.527344 34.371094 6.96875 31.601562 C 9.414062 28.835938 12.925781 27.25 16.621094 27.25 Z M 188.246094 27.25 " fill-opacity="1" fill-rule="evenodd"/></g><path fill="#cfd8dc" d="M 162.503906 78.738281 C 169.613281 78.738281 175.375 84.5 175.375 91.609375 L 175.375 314.726562 C 175.375 319.316406 172.933594 323.558594 168.964844 325.859375 C 164.996094 328.164062 160.101562 328.179688 156.117188 325.902344 L 96.050781 291.578125 C 89.875 288.050781 87.730469 280.1875 91.257812 274.015625 C 94.785156 267.84375 102.648438 265.699219 108.820312 269.222656 L 149.632812 292.546875 L 149.632812 91.609375 C 149.632812 84.5 155.394531 78.738281 162.503906 78.738281 Z M 162.503906 78.738281 " fill-opacity="1" fill-rule="evenodd"/><path fill="#eceff1" d="M 201.121094 91.609375 C 201.121094 84.5 206.886719 78.738281 213.996094 78.738281 L 299.808594 78.738281 C 306.917969 78.738281 312.679688 84.5 312.679688 91.609375 C 312.679688 98.71875 306.917969 104.480469 299.808594 104.480469 L 226.867188 104.480469 L 226.867188 187.121094 L 288.433594 173.441406 C 292.445312 172.546875 296.640625 173.625 299.726562 176.339844 C 302.8125 179.054688 304.417969 183.078125 304.046875 187.171875 L 295.464844 281.566406 C 295.0625 286.007812 292.390625 289.921875 288.402344 291.914062 L 219.75 326.238281 C 213.390625 329.417969 205.660156 326.839844 202.480469 320.484375 C 199.300781 314.125 201.878906 306.390625 208.238281 303.214844 L 270.476562 272.09375 L 276.8125 202.394531 L 216.789062 215.734375 C 212.976562 216.582031 208.984375 215.652344 205.941406 213.207031 C 202.894531 210.765625 201.121094 207.074219 201.121094 203.167969 Z M 201.121094 91.609375 " fill-opacity="1" fill-rule="evenodd"/></svg>